<?xml version="1.0" encoding="utf-8"?>
<!-- Generator: Adobe Illustrator 23.0.3, SVG Export Plug-In . SVG Version: 6.00 Build 0)  -->
<svg version="1.1" id="Layer_1" xmlns="http://www.w3.org/2000/svg" xmlns:xlink="http://www.w3.org/1999/xlink" x="0px" y="0px"
	 viewBox="0 0 150 150" style="enable-background:new 0 0 150 150;" xml:space="preserve">
<style type="text/css">
	.st0{fill:none;}
	.st1{enable-background:new    ;}
	.st2{fill:#808080;}
	.st3{fill:#3FA9F5;}
	.st4{fill:#999999;}
</style>
<g>
	<polygon class="st0" points="29.21,72.67 28.66,72.67 28.66,72.67 	"/>
	<g class="st1">
		<path class="st2" d="M3.62,71.04c2.13,0,2.43-1.51,2.43-2.87c0-1.08-0.12-2.17-0.24-3.25c-0.12-1.08-0.24-2.13-0.24-3.21
			c0-3.56,1.8-5.07,4.36-5.07h0.63v2.15h-0.53c-1.73,0-2.32,1.24-2.32,3.33c0,0.89,0.09,1.82,0.21,2.74
			c0.12,0.97,0.21,1.9,0.21,2.94c0.03,2.47-0.79,3.71-2.11,4.18v0.08c1.32,0.43,2.14,1.74,2.11,4.21c0,1.04-0.09,2.01-0.21,2.94
			c-0.12,0.97-0.21,1.86-0.21,2.78c0,2.17,0.67,3.36,2.32,3.36h0.53v2.15H9.93c-2.49,0-4.36-1.4-4.36-5.31
			c0-1.05,0.12-2.13,0.24-3.18s0.24-2.09,0.24-3.14c0-1.2-0.3-2.87-2.43-2.87L3.62,71.04L3.62,71.04z"/>
	</g>
	<g class="st1">
		<path class="st3" d="M30.43,82.96H26.6V71.59c0-0.64-0.08-1.22-0.25-1.73c-0.17-0.51-0.4-0.95-0.69-1.32
			c-0.29-0.37-0.63-0.65-1.02-0.84c-0.39-0.2-0.81-0.29-1.27-0.29h-6.59v15.55H13.2V65.04c0-0.34,0.05-0.66,0.14-0.95
			c0.1-0.29,0.23-0.55,0.4-0.77c0.17-0.22,0.37-0.39,0.6-0.52c0.23-0.12,0.47-0.19,0.73-0.19h8.43c0.47,0,0.97,0.07,1.49,0.21
			c0.52,0.14,1.04,0.36,1.55,0.67c0.51,0.31,1,0.7,1.47,1.17c0.46,0.47,0.88,1.04,1.24,1.71c0.36,0.67,0.64,1.45,0.86,2.32
			c0.21,0.88,0.32,1.87,0.32,2.97L30.43,82.96L30.43,82.96z"/>
		<path class="st3" d="M50.72,69.32c0,0.67-0.09,1.4-0.28,2.18c-0.19,0.78-0.49,1.5-0.9,2.17c-0.42,0.67-0.96,1.23-1.63,1.68
			c-0.67,0.45-1.49,0.67-2.45,0.67h-6.9v-4.55h6.58c0.5,0,0.88-0.2,1.15-0.6c0.27-0.4,0.41-0.89,0.41-1.47
			c0-0.62-0.15-1.11-0.45-1.47c-0.3-0.35-0.67-0.53-1.1-0.53h-6.66c-0.51,0-0.9,0.2-1.18,0.61c-0.28,0.41-0.42,0.91-0.42,1.51v6.82
			c0,0.65,0.16,1.16,0.47,1.52c0.31,0.36,0.7,0.55,1.16,0.55h6.75v4.79h-6.79c-0.52,0-1.08-0.12-1.68-0.37
			c-0.6-0.24-1.16-0.64-1.68-1.19c-0.52-0.55-0.95-1.26-1.29-2.14c-0.35-0.88-0.52-1.95-0.52-3.21v-6.97c0-0.67,0.09-1.4,0.28-2.18
			c0.19-0.78,0.49-1.5,0.9-2.17c0.42-0.67,0.96-1.23,1.63-1.68c0.67-0.45,1.49-0.67,2.45-0.67h6.9c0.53,0,1.1,0.12,1.71,0.36
			c0.61,0.24,1.18,0.62,1.71,1.15s0.96,1.22,1.32,2.08C50.55,67.05,50.72,68.09,50.72,69.32z"/>
		<path class="st3" d="M69.91,76.09c0,0.84-0.08,1.6-0.24,2.27c-0.16,0.67-0.38,1.26-0.65,1.77c-0.27,0.51-0.58,0.94-0.94,1.3
			c-0.35,0.36-0.73,0.65-1.12,0.88c-0.39,0.22-0.78,0.39-1.18,0.5c-0.4,0.11-0.78,0.16-1.13,0.16h-6.75c-0.52,0-1.08-0.12-1.7-0.36
			c-0.61-0.24-1.18-0.63-1.7-1.17c-0.52-0.55-0.96-1.25-1.31-2.13c-0.35-0.87-0.52-1.94-0.52-3.21v-6.62c0-1.25,0.17-2.32,0.52-3.19
			c0.35-0.87,0.78-1.58,1.31-2.13c0.52-0.55,1.09-0.94,1.7-1.17c0.61-0.24,1.18-0.36,1.7-0.36h6.75c0.96,0,1.77,0.22,2.45,0.68
			c0.67,0.45,1.21,1.02,1.62,1.7c0.41,0.68,0.71,1.43,0.9,2.23c0.19,0.8,0.28,1.55,0.28,2.24V76.09z M66.32,69.63
			c0-0.67-0.13-1.17-0.39-1.5c-0.26-0.33-0.64-0.49-1.13-0.49h-6.76c-0.5,0-0.88,0.17-1.14,0.5c-0.26,0.33-0.39,0.82-0.39,1.45v6.61
			c0,0.64,0.13,1.13,0.39,1.46s0.64,0.51,1.14,0.51h6.76c0.51,0,0.89-0.17,1.14-0.51c0.25-0.34,0.38-0.83,0.38-1.46L66.32,69.63
			L66.32,69.63z"/>
	</g>
	<g class="st1">
		<path class="st4" d="M79.96,82.96H78.4c-0.55,0-1.14-0.12-1.76-0.36c-0.62-0.24-1.21-0.63-1.74-1.18
			c-0.54-0.55-0.99-1.25-1.34-2.13c-0.35-0.87-0.53-1.94-0.53-3.21V54h3.83v22.24c0,0.59,0.14,1.06,0.42,1.41
			c0.28,0.35,0.63,0.52,1.06,0.52h1.63V82.96z"/>
		<path class="st4" d="M98.63,76.38c0,0.68-0.09,1.42-0.28,2.22c-0.18,0.79-0.48,1.53-0.89,2.21c-0.41,0.68-0.94,1.25-1.6,1.7
			s-1.46,0.68-2.4,0.68h-6.93c-0.52,0-1.09-0.12-1.7-0.36c-0.61-0.24-1.17-0.63-1.69-1.17s-0.95-1.24-1.3-2.11
			c-0.35-0.87-0.52-1.92-0.52-3.17c0-0.68,0.09-1.43,0.28-2.23c0.18-0.8,0.48-1.54,0.89-2.22s0.95-1.25,1.62-1.7
			c0.67-0.46,1.47-0.68,2.42-0.68h6.83v4.79h-6.61c-0.5,0-0.88,0.2-1.16,0.6c-0.27,0.4-0.41,0.89-0.41,1.48
			c0,0.63,0.16,1.11,0.47,1.46c0.31,0.35,0.69,0.52,1.12,0.52h6.66c0.51,0,0.9-0.2,1.18-0.6c0.28-0.4,0.42-0.9,0.42-1.5v-6.82
			c0-0.64-0.15-1.15-0.45-1.52c-0.3-0.38-0.68-0.56-1.14-0.56h-8.21v-4.79h8.24c0.52,0,1.08,0.12,1.68,0.36
			c0.6,0.24,1.16,0.63,1.67,1.17c0.51,0.54,0.95,1.24,1.29,2.11c0.35,0.87,0.52,1.93,0.52,3.17L98.63,76.38L98.63,76.38z"/>
		<path class="st4" d="M118.97,76.09c0,0.46-0.04,0.95-0.12,1.47s-0.21,1.03-0.39,1.53c-0.18,0.51-0.4,1-0.68,1.46
			c-0.28,0.46-0.61,0.88-1.01,1.23c-0.39,0.36-0.85,0.64-1.37,0.86c-0.52,0.21-1.1,0.32-1.76,0.32h-6.87
			c-0.36,0-0.73-0.05-1.13-0.16c-0.39-0.11-0.79-0.27-1.18-0.5s-0.76-0.52-1.12-0.88c-0.36-0.36-0.67-0.79-0.95-1.3
			c-0.28-0.51-0.49-1.1-0.66-1.77c-0.16-0.67-0.25-1.43-0.25-2.27V54h3.83v22.18c0,0.61,0.15,1.09,0.44,1.45
			c0.29,0.36,0.66,0.54,1.11,0.54h6.75c0.48,0,0.85-0.18,1.12-0.54c0.27-0.36,0.4-0.84,0.4-1.43v-6.61c0-0.74-0.21-1.29-0.62-1.63
			c-0.26-0.22-0.6-0.32-0.94-0.32h-6.82v-5.03h6.87c0.36,0,0.74,0.05,1.14,0.16c0.4,0.11,0.8,0.27,1.19,0.5
			c0.39,0.22,0.77,0.52,1.14,0.88c0.36,0.36,0.68,0.79,0.95,1.3c0.27,0.51,0.49,1.09,0.66,1.76c0.17,0.67,0.25,1.42,0.25,2.26
			L118.97,76.09L118.97,76.09z"/>
	</g>
	<g class="st1">
		<path class="st3" d="M137.15,76.13c0,0.84-0.08,1.59-0.24,2.25s-0.38,1.25-0.64,1.76c-0.27,0.5-0.58,0.94-0.93,1.29
			c-0.35,0.36-0.72,0.65-1.11,0.87s-0.78,0.39-1.17,0.5s-0.77,0.16-1.12,0.16h-10.08v-4.79h9.84c0.5,0,0.87-0.17,1.12-0.5
			c0.25-0.33,0.38-0.81,0.38-1.43c-0.05-1.27-0.54-1.9-1.47-1.9h-5.6c-0.84,0-1.56-0.19-2.14-0.57c-0.59-0.38-1.06-0.86-1.43-1.44
			c-0.37-0.57-0.63-1.19-0.79-1.86c-0.16-0.66-0.24-1.28-0.24-1.86c0-1.11,0.15-2.05,0.45-2.81c0.3-0.76,0.68-1.38,1.14-1.85
			c0.46-0.47,0.96-0.81,1.5-1.02s1.04-0.32,1.51-0.32h9.37v5.03h-8.88c-0.19,0-0.33,0.03-0.44,0.08c-0.11,0.06-0.19,0.13-0.24,0.22
			s-0.08,0.19-0.09,0.29s-0.01,0.2-0.01,0.3c0.01,0.19,0.04,0.35,0.08,0.45c0.05,0.11,0.11,0.19,0.17,0.24
			c0.07,0.05,0.15,0.08,0.24,0.08c0.09,0.01,0.17,0.01,0.26,0.01h5.35c0.95,0,1.77,0.22,2.44,0.67c0.67,0.45,1.21,1.01,1.62,1.69
			c0.41,0.68,0.71,1.42,0.89,2.22C137.06,74.7,137.15,75.44,137.15,76.13z"/>
	</g>
	<g class="st1">
		<path class="st2" d="M145.77,73.02c-2.13,0-2.43,1.67-2.43,2.87c0,1.05,0.12,2.09,0.24,3.14c0.12,1.05,0.24,2.13,0.24,3.18
			c0,3.91-1.89,5.31-4.36,5.31h-0.63v-2.15h0.5c1.65-0.04,2.36-1.2,2.36-3.36c0-0.93-0.12-1.82-0.21-2.78
			c-0.12-0.93-0.24-1.9-0.24-2.94c0-2.47,0.83-3.79,2.13-4.21v-0.08c-1.3-0.46-2.13-1.7-2.13-4.18c0-1.04,0.12-1.97,0.24-2.94
			c0.09-0.93,0.21-1.86,0.21-2.74c0-2.09-0.62-3.29-2.33-3.33h-0.53v-2.15h0.6c2.55,0,4.39,1.51,4.39,5.07
			c0,1.08-0.12,2.13-0.24,3.21c-0.12,1.08-0.24,2.17-0.24,3.25c0,1.36,0.3,2.87,2.43,2.87L145.77,73.02L145.77,73.02z"/>
	</g>
	<g class="st1">
		<path class="st4" d="M37.37,89.66h-8.38v8.38h-2.15v-9.33c0-0.13,0.03-0.26,0.08-0.38c0.05-0.12,0.13-0.22,0.22-0.31
			c0.09-0.09,0.21-0.16,0.34-0.21c0.13-0.05,0.27-0.07,0.42-0.07h9.47V89.66z M36.41,93.72h-6.7v-1.91h6.7V93.72z"/>
		<path class="st4" d="M46.22,92.05h-4.86c-0.29,0-0.51,0.06-0.66,0.19c-0.15,0.13-0.22,0.32-0.22,0.56v5.22h-2.15v-5.22
			c0-0.33,0.05-0.62,0.14-0.88c0.09-0.26,0.22-0.49,0.38-0.69c0.16-0.2,0.34-0.37,0.54-0.51c0.2-0.14,0.42-0.25,0.64-0.34
			c0.22-0.09,0.45-0.15,0.68-0.2c0.23-0.04,0.44-0.06,0.64-0.06h4.87V92.05z"/>
		<path class="st4" d="M55.79,95.42c0,0.26-0.05,0.55-0.15,0.85c-0.1,0.3-0.27,0.59-0.49,0.85c-0.23,0.26-0.52,0.48-0.89,0.65
			c-0.36,0.17-0.81,0.26-1.33,0.26h-3.85c-0.29,0-0.61-0.05-0.95-0.14s-0.66-0.24-0.95-0.45c-0.29-0.21-0.54-0.48-0.73-0.81
			c-0.2-0.34-0.29-0.74-0.29-1.22c0-0.26,0.05-0.55,0.16-0.86c0.1-0.31,0.27-0.59,0.5-0.85c0.23-0.26,0.53-0.48,0.91-0.66
			c0.37-0.18,0.83-0.26,1.36-0.26h3.83v1.91h-3.96c-0.3,0-0.53,0.08-0.69,0.25c-0.16,0.17-0.24,0.37-0.24,0.61
			c0,0.26,0.09,0.46,0.28,0.6c0.19,0.14,0.41,0.22,0.67,0.22h4c0.28,0,0.5-0.08,0.66-0.23c0.16-0.16,0.23-0.35,0.23-0.59v-2.67
			c0-0.25-0.08-0.45-0.25-0.6c-0.17-0.15-0.38-0.22-0.64-0.22h-4.61v-1.91h4.56c0.29,0,0.6,0.05,0.93,0.14
			c0.33,0.09,0.64,0.24,0.93,0.45s0.52,0.48,0.72,0.81c0.19,0.33,0.29,0.74,0.29,1.22V95.42z"/>
		<path class="st4" d="M65.36,98.03h-2.15v-5.22c0-0.25-0.07-0.44-0.2-0.56c-0.14-0.13-0.34-0.19-0.6-0.19h-2.54v5.98h-2.15v-6.95
			c0-0.13,0.03-0.25,0.08-0.37s0.13-0.22,0.23-0.3c0.1-0.09,0.22-0.15,0.35-0.2c0.13-0.05,0.27-0.07,0.42-0.07h3.74
			c0.29,0,0.6,0.05,0.93,0.14c0.33,0.09,0.65,0.24,0.95,0.45v-0.58h2.82c0.2,0,0.41,0.02,0.62,0.06c0.22,0.04,0.44,0.11,0.65,0.19
			c0.22,0.09,0.42,0.2,0.62,0.34c0.2,0.14,0.37,0.31,0.52,0.5c0.15,0.2,0.27,0.43,0.36,0.68c0.09,0.26,0.14,0.55,0.14,0.88v5.24H68
			v-5.22c0-0.25-0.07-0.44-0.21-0.56c-0.14-0.13-0.35-0.19-0.64-0.19h-1.9c0.07,0.23,0.11,0.49,0.11,0.76L65.36,98.03L65.36,98.03z"
			/>
		<path class="st4" d="M81.33,92.77c0,0.27-0.05,0.55-0.15,0.86c-0.1,0.31-0.27,0.59-0.49,0.85c-0.23,0.26-0.52,0.48-0.89,0.66
			c-0.37,0.18-0.81,0.27-1.34,0.27H74.7v-1.68h3.94c0.3,0,0.53-0.08,0.69-0.25c0.16-0.16,0.24-0.37,0.24-0.61
			c0-0.26-0.09-0.46-0.27-0.6c-0.18-0.15-0.4-0.22-0.66-0.22h-3.75c-0.29,0-0.51,0.08-0.67,0.24c-0.16,0.16-0.24,0.36-0.24,0.59
			v2.67c0,0.26,0.09,0.45,0.27,0.6c0.18,0.14,0.4,0.21,0.66,0.21h3.62v1.68h-3.8c-0.29,0-0.61-0.04-0.94-0.13s-0.65-0.22-0.94-0.42
			s-0.53-0.44-0.73-0.75c-0.19-0.31-0.29-0.68-0.29-1.12v-2.85c0-0.27,0.05-0.55,0.15-0.86c0.1-0.31,0.27-0.59,0.49-0.85
			c0.23-0.26,0.52-0.48,0.89-0.66c0.37-0.18,0.81-0.27,1.34-0.27h3.76c0.29,0,0.6,0.05,0.94,0.14c0.34,0.09,0.64,0.24,0.93,0.45
			s0.53,0.48,0.72,0.82C81.23,91.88,81.33,92.29,81.33,92.77z"/>
		<path class="st4" d="M97.24,90.13c-0.34,0.67-0.7,1.33-1.08,1.98s-0.79,1.26-1.22,1.84c-0.42,0.58-0.86,1.12-1.3,1.61
			c-0.44,0.49-0.88,0.91-1.32,1.27c-0.44,0.35-0.86,0.63-1.27,0.83c-0.41,0.2-0.8,0.3-1.17,0.3c-0.15,0-0.29-0.02-0.42-0.07
			c-0.13-0.05-0.24-0.11-0.34-0.2c-0.1-0.08-0.17-0.18-0.23-0.3c-0.06-0.12-0.08-0.24-0.08-0.38v-3.51l-4.18,4.18
			c-0.11,0.1-0.22,0.17-0.35,0.21c-0.13,0.05-0.26,0.07-0.39,0.07c-0.15,0-0.28-0.02-0.41-0.07c-0.13-0.05-0.24-0.11-0.34-0.2
			c-0.1-0.08-0.17-0.18-0.23-0.3c-0.06-0.11-0.08-0.24-0.08-0.38v-6.89h2.15v4.46l4.19-4.19c0.15-0.13,0.33-0.22,0.54-0.26
			c0.21-0.04,0.41-0.02,0.61,0.06c0.2,0.07,0.36,0.19,0.47,0.34c0.11,0.16,0.17,0.33,0.17,0.52v4.48c0.45-0.39,0.86-0.8,1.23-1.24
			c0.37-0.44,0.71-0.88,1.02-1.34c0.32-0.46,0.61-0.93,0.89-1.4c0.28-0.48,0.55-0.95,0.81-1.42H97.24z"/>
		<path class="st4" d="M107.48,95.37c0,0.33-0.05,0.62-0.14,0.88c-0.09,0.26-0.21,0.49-0.36,0.69c-0.15,0.2-0.32,0.37-0.52,0.5
			c-0.2,0.14-0.4,0.25-0.62,0.34s-0.43,0.15-0.66,0.19c-0.22,0.04-0.43,0.06-0.63,0.06h-3.75c-0.29,0-0.6-0.05-0.94-0.14
			c-0.34-0.09-0.66-0.24-0.95-0.46c-0.29-0.21-0.53-0.49-0.73-0.83c-0.19-0.34-0.29-0.75-0.29-1.24V92.8c0-0.49,0.1-0.9,0.29-1.24
			c0.19-0.34,0.44-0.61,0.73-0.83c0.29-0.21,0.61-0.36,0.95-0.46c0.34-0.09,0.66-0.14,0.94-0.14h3.75c0.53,0,0.99,0.09,1.36,0.26
			c0.37,0.17,0.67,0.39,0.9,0.66c0.23,0.27,0.39,0.56,0.5,0.87c0.1,0.31,0.16,0.6,0.16,0.87L107.48,95.37L107.48,95.37z
			 M105.33,92.82c0-0.26-0.07-0.45-0.22-0.58c-0.15-0.12-0.36-0.19-0.63-0.19h-3.79c-0.28,0-0.5,0.06-0.64,0.19
			c-0.15,0.13-0.22,0.32-0.22,0.56v2.55c0,0.25,0.07,0.44,0.22,0.56c0.15,0.13,0.36,0.2,0.64,0.2h3.79c0.29,0,0.5-0.06,0.64-0.2
			c0.14-0.13,0.21-0.32,0.21-0.56L105.33,92.82L105.33,92.82z"/>
		<path class="st4" d="M116.81,92.05h-4.62c-0.29,0-0.51,0.06-0.66,0.19c-0.15,0.13-0.22,0.32-0.22,0.56v5.22h-2.15v-5.22
			c0-0.33,0.05-0.62,0.14-0.88c0.09-0.26,0.21-0.49,0.37-0.69c0.15-0.2,0.33-0.37,0.53-0.51c0.2-0.14,0.41-0.25,0.62-0.34
			c0.22-0.09,0.44-0.15,0.66-0.2c0.22-0.04,0.43-0.06,0.62-0.06h4.72V92.05z"/>
		<path class="st4" d="M120.4,98.03h-2.15V86.78h2.15V98.03z M128.5,98.03h-3.04l-4.25-3.69c-0.24-0.19-0.35-0.44-0.33-0.73
			c0.01-0.14,0.05-0.26,0.12-0.38s0.16-0.22,0.28-0.3l3.86-2.79h3.38l-4.97,3.59L128.5,98.03z"/>
	</g>
</g>
</svg>
