<?xml version="1.0" encoding="utf-8"?>
<!-- Generator: Adobe Illustrator 23.0.3, SVG Export Plug-In . SVG Version: 6.00 Build 0)  -->
<svg version="1.1" id="Layer_1" xmlns="http://www.w3.org/2000/svg" xmlns:xlink="http://www.w3.org/1999/xlink" x="0px" y="0px"
	 viewBox="0 0 1920 1080" style="enable-background:new 0 0 1920 1080;" xml:space="preserve">
<style type="text/css">
	.st0{fill:none;}
	.st1{enable-background:new    ;}
	.st2{fill:#808080;}
	.st3{fill:#3FA9F5;}
	.st4{fill:#999999;}
</style>
<g>
	<polygon class="st0" points="769.91,526 767.64,526 767.64,526 	"/>
	<g class="st1">
		<path class="st2" d="M663,519.21c8.91,0,10.17-6.31,10.17-11.98c0-4.53-0.5-9.06-1-13.6c-0.5-4.53-1-8.9-1-13.43
			c0-14.89,7.53-21.2,18.2-21.2H692v9h-2.21c-7.23,0-9.68,5.17-9.68,13.9c0,3.72,0.37,7.59,0.86,11.47
			c0.49,4.04,0.86,7.92,0.86,12.28c0.12,10.34-3.31,15.51-8.83,17.45v0.32c5.52,1.78,8.95,7.27,8.83,17.61
			c0,4.36-0.37,8.4-0.86,12.28c-0.49,4.04-0.86,7.76-0.86,11.63c0,9.05,2.82,14.06,9.68,14.06H692v9h-2.64
			c-10.42,0-18.2-5.83-18.2-22.17c0-4.37,0.5-8.9,1-13.27c0.5-4.37,1-8.74,1-13.11c0-5.02-1.26-11.98-10.17-11.98V519.21z"/>
	</g>
	<g class="st1">
		<path class="st3" d="M775,569h-16v-47.5c0-2.69-0.35-5.11-1.06-7.24c-0.71-2.14-1.66-3.97-2.87-5.5c-1.21-1.53-2.63-2.7-4.26-3.52
			c-1.63-0.82-3.4-1.23-5.29-1.23H718v65h-15v-74.86c0-1.42,0.2-2.74,0.6-3.97c0.4-1.23,0.96-2.31,1.68-3.22
			c0.72-0.92,1.56-1.64,2.52-2.16c0.96-0.52,1.98-0.79,3.07-0.79h35.22c1.96,0,4.04,0.29,6.22,0.86c2.18,0.58,4.35,1.51,6.49,2.79
			c2.14,1.29,4.19,2.91,6.13,4.87c1.94,1.97,3.67,4.35,5.17,7.16c1.5,2.8,2.69,6.04,3.58,9.71c0.88,3.67,1.32,7.81,1.32,12.42V569z"
			/>
		<path class="st3" d="M859.82,512c0,2.82-0.39,5.85-1.17,9.11c-0.78,3.26-2.04,6.28-3.78,9.07c-1.74,2.79-4.02,5.12-6.82,7
			c-2.81,1.88-6.22,2.82-10.23,2.82H809v-19h27.49c2.07,0,3.67-0.83,4.81-2.49c1.13-1.66,1.7-3.71,1.7-6.16
			c0-2.6-0.64-4.64-1.9-6.13c-1.27-1.48-2.8-2.22-4.6-2.22h-27.82c-2.12,0-3.77,0.85-4.93,2.55c-1.16,1.7-1.74,3.81-1.74,6.32v28.49
			c0,2.72,0.65,4.84,1.95,6.36c1.3,1.52,2.91,2.28,4.84,2.28H837v20h-28.36c-2.18,0-4.52-0.51-7.04-1.53
			c-2.52-1.02-4.86-2.67-7.01-4.96c-2.16-2.28-3.96-5.27-5.41-8.95c-1.45-3.68-2.18-8.16-2.18-13.43V512c0-2.82,0.39-5.85,1.17-9.11
			c0.78-3.26,2.04-6.28,3.78-9.07c1.74-2.79,4.01-5.12,6.82-7c2.81-1.88,6.22-2.82,10.23-2.82h28.82c2.21,0,4.6,0.5,7.16,1.49
			c2.56,0.99,4.94,2.59,7.13,4.81c2.19,2.22,4.03,5.11,5.5,8.68C859.08,502.55,859.82,506.89,859.82,512z"/>
		<path class="st3" d="M940,540.3c0,3.51-0.34,6.67-1.02,9.48c-0.68,2.81-1.58,5.27-2.7,7.39c-1.12,2.12-2.42,3.93-3.91,5.43
			c-1.48,1.49-3.03,2.71-4.66,3.66c-1.62,0.94-3.27,1.64-4.93,2.08c-1.66,0.45-3.24,0.67-4.72,0.67h-28.19
			c-2.16,0-4.53-0.5-7.09-1.49c-2.56-1-4.94-2.63-7.12-4.91c-2.18-2.28-4.01-5.24-5.47-8.89c-1.46-3.64-2.19-8.11-2.19-13.41v-27.68
			c0-5.24,0.73-9.68,2.19-13.33c1.46-3.64,3.28-6.61,5.47-8.89c2.18-2.28,4.56-3.92,7.12-4.91c2.56-0.99,4.93-1.49,7.09-1.49h28.19
			c4.01,0,7.41,0.94,10.22,2.83c2.8,1.89,5.07,4.26,6.79,7.12c1.72,2.86,2.97,5.96,3.76,9.32c0.78,3.36,1.17,6.48,1.17,9.36V540.3z
			 M925,513.31c0-2.82-0.54-4.91-1.63-6.27c-1.09-1.36-2.66-2.04-4.72-2.04h-28.24c-2.1,0-3.69,0.69-4.78,2.08
			c-1.09,1.39-1.63,3.41-1.63,6.08v27.61c0,2.67,0.54,4.71,1.63,6.12c1.09,1.41,2.68,2.12,4.78,2.12h28.24
			c2.14,0,3.73-0.71,4.78-2.12c1.05-1.41,1.57-3.45,1.57-6.12V513.31z"/>
	</g>
	<g class="st1">
		<path class="st4" d="M982,569h-6.54c-2.3,0-4.75-0.5-7.35-1.49c-2.61-1-5.04-2.64-7.29-4.92c-2.26-2.28-4.12-5.24-5.6-8.89
			c-1.48-3.65-2.22-8.12-2.22-13.41V448h16v92.92c0,2.46,0.59,4.42,1.77,5.88c1.18,1.46,2.65,2.19,4.41,2.19H982V569z"/>
		<path class="st4" d="M1060,541.52c0,2.86-0.38,5.95-1.15,9.27c-0.76,3.32-2,6.39-3.71,9.23c-1.71,2.84-3.94,5.21-6.69,7.12
			s-6.1,2.86-10.04,2.86h-28.96c-2.19,0-4.56-0.5-7.09-1.51c-2.54-1.01-4.89-2.64-7.06-4.89c-2.17-2.25-3.99-5.19-5.45-8.82
			c-1.46-3.63-2.19-8.04-2.19-13.24c0-2.86,0.39-5.96,1.16-9.3c0.77-3.34,2.02-6.43,3.74-9.26c1.72-2.83,3.98-5.21,6.76-7.11
			c2.78-1.91,6.16-2.86,10.13-2.86H1038v20h-27.62c-2.08,0-3.69,0.83-4.83,2.5c-1.14,1.67-1.71,3.73-1.71,6.19
			c0,2.62,0.66,4.65,1.97,6.12c1.31,1.46,2.87,2.19,4.68,2.19h27.83c2.12,0,3.77-0.84,4.93-2.51c1.16-1.67,1.74-3.77,1.74-6.28
			v-28.49c0-2.67-0.63-4.79-1.89-6.36c-1.26-1.57-2.86-2.35-4.78-2.35H1004v-20h34.42c2.17,0,4.51,0.5,7.02,1.51
			c2.51,1.01,4.84,2.64,6.99,4.89c2.15,2.26,3.95,5.2,5.39,8.83c1.45,3.63,2.17,8.05,2.17,13.25V541.52z"/>
		<path class="st4" d="M1145,540.3c0,1.94-0.17,3.98-0.52,6.13c-0.35,2.15-0.89,4.29-1.62,6.41c-0.74,2.12-1.68,4.16-2.85,6.09
			c-1.16,1.94-2.57,3.66-4.22,5.15c-1.65,1.49-3.56,2.69-5.72,3.58c-2.16,0.89-4.61,1.34-7.35,1.34h-28.69
			c-1.49,0-3.06-0.22-4.71-0.67c-1.65-0.45-3.29-1.14-4.92-2.09c-1.63-0.95-3.19-2.17-4.67-3.67c-1.49-1.5-2.81-3.31-3.95-5.44
			c-1.15-2.13-2.06-4.6-2.75-7.41c-0.68-2.81-1.03-5.98-1.03-9.5V448h16v92.7c0,2.53,0.62,4.54,1.85,6.05
			c1.23,1.5,2.77,2.25,4.62,2.25h28.19c1.99,0,3.55-0.76,4.67-2.27c1.12-1.52,1.68-3.5,1.68-5.96v-27.61c0-3.09-0.86-5.37-2.59-6.83
			c-1.08-0.91-2.5-1.33-3.91-1.33l-28.5,0v-21h28.71c1.51,0,3.1,0.22,4.77,0.67c1.67,0.45,3.34,1.14,4.99,2.08
			c1.65,0.94,3.23,2.16,4.75,3.66c1.51,1.49,2.84,3.3,3.98,5.43c1.14,2.12,2.06,4.57,2.76,7.35c0.69,2.78,1.04,5.92,1.04,9.44V540.3
			z"/>
	</g>
	<g class="st1">
		<path class="st3" d="M1220.99,540.46c0,3.49-0.34,6.63-1.02,9.42c-0.68,2.79-1.58,5.24-2.69,7.35c-1.12,2.11-2.41,3.91-3.89,5.39
			c-1.48,1.49-3.02,2.7-4.64,3.64c-1.62,0.94-3.25,1.63-4.91,2.07c-1.66,0.44-3.22,0.66-4.7,0.66H1157v-20h41.14
			c2.07,0,3.63-0.69,4.69-2.07c1.05-1.38,1.58-3.37,1.58-5.97c-0.2-5.31-2.25-7.96-6.15-7.96h-23.42c-3.51,0-6.5-0.8-8.95-2.4
			s-4.44-3.6-5.98-6c-1.53-2.4-2.64-4.99-3.31-7.77c-0.67-2.77-1.01-5.36-1.01-7.77c0-4.64,0.63-8.55,1.9-11.73
			c1.27-3.18,2.86-5.75,4.78-7.73c1.92-1.97,4-3.4,6.25-4.28c2.25-0.88,4.35-1.32,6.31-1.32H1214v21h-37.1
			c-0.78,0-1.39,0.11-1.83,0.34c-0.45,0.23-0.78,0.53-0.99,0.91c-0.21,0.38-0.34,0.79-0.38,1.22c-0.04,0.43-0.06,0.85-0.06,1.26
			c0.04,0.81,0.15,1.45,0.35,1.9c0.19,0.46,0.44,0.79,0.73,0.99c0.29,0.2,0.62,0.32,0.99,0.34c0.37,0.03,0.73,0.04,1.08,0.04h22.36
			c3.99,0,7.38,0.94,10.18,2.81c2.79,1.88,5.05,4.24,6.76,7.08c1.71,2.84,2.96,5.93,3.74,9.27
			C1220.6,534.49,1220.99,537.59,1220.99,540.46z"/>
	</g>
	<g class="st1">
		<path class="st2" d="M1257,527.47c-8.91,0-10.17,6.96-10.17,11.98c0,4.37,0.5,8.74,1,13.11c0.5,4.37,1,8.9,1,13.27
			c0,16.35-7.91,22.17-18.2,22.17H1228v-9h2.1c6.91-0.16,9.87-5.01,9.87-14.06c0-3.88-0.49-7.59-0.86-11.63
			c-0.49-3.88-0.99-7.92-0.99-12.28c0-10.34,3.46-15.83,8.88-17.61v-0.32c-5.43-1.94-8.88-7.11-8.88-17.45
			c0-4.36,0.49-8.24,0.99-12.28c0.37-3.88,0.86-7.76,0.86-11.47c0-8.73-2.59-13.73-9.75-13.9H1228v-9h2.51
			c10.67,0,18.33,6.31,18.33,21.2c0,4.53-0.5,8.9-1,13.43c-0.5,4.53-1,9.06-1,13.6c0,5.67,1.26,11.98,10.17,11.98V527.47z"/>
	</g>
	<g class="st1">
		<path class="st4" d="M804,597h-35v35h-9v-38.97c0-0.55,0.11-1.08,0.34-1.57c0.22-0.49,0.54-0.92,0.93-1.29
			c0.39-0.37,0.86-0.66,1.4-0.86c0.54-0.2,1.13-0.31,1.76-0.31H804V597z M800,614h-28v-8h28V614z"/>
		<path class="st4" d="M841,607h-20.3c-1.22,0-2.15,0.27-2.77,0.81c-0.62,0.54-0.93,1.33-0.93,2.36V632h-9v-21.8
			c0-1.37,0.2-2.6,0.59-3.69c0.39-1.09,0.92-2.05,1.58-2.88c0.66-0.83,1.42-1.54,2.27-2.12c0.85-0.59,1.75-1.06,2.69-1.43
			c0.94-0.37,1.88-0.64,2.84-0.82c0.96-0.17,1.85-0.26,2.69-0.26H841V607z"/>
		<path class="st4" d="M881,621.07c0,1.1-0.21,2.28-0.63,3.56c-0.42,1.27-1.11,2.45-2.05,3.54c-0.95,1.09-2.18,2-3.7,2.73
			c-1.52,0.73-3.38,1.1-5.56,1.1h-16.08c-1.23,0-2.56-0.19-3.98-0.58c-1.42-0.39-2.75-1.02-3.96-1.89c-1.22-0.87-2.24-2-3.06-3.4
			c-0.82-1.4-1.23-3.1-1.23-5.11c0-1.1,0.22-2.3,0.65-3.59c0.43-1.29,1.13-2.48,2.1-3.57c0.97-1.09,2.23-2.01,3.79-2.75
			c1.56-0.74,3.46-1.1,5.69-1.1H869v8h-16.54c-1.25,0-2.21,0.34-2.89,1.03c-0.68,0.69-1.02,1.54-1.02,2.55
			c0,1.08,0.39,1.92,1.18,2.52c0.79,0.6,1.72,0.9,2.8,0.9h16.73c1.19,0,2.11-0.33,2.77-0.98c0.65-0.65,0.98-1.47,0.98-2.46v-11.15
			c0-1.04-0.35-1.87-1.06-2.49s-1.6-0.92-2.68-0.92H850v-8h19.05c1.2,0,2.5,0.19,3.89,0.58c1.39,0.39,2.68,1.01,3.87,1.88
			c1.19,0.87,2.19,2,2.99,3.39c0.8,1.39,1.2,3.09,1.2,5.08V621.07z"/>
		<path class="st4" d="M921,632h-9v-21.83c0-1.04-0.28-1.82-0.85-2.36c-0.57-0.54-1.41-0.81-2.52-0.81H898v25h-9v-29.06
			c0-0.55,0.12-1.06,0.35-1.54c0.23-0.48,0.55-0.9,0.97-1.25c0.42-0.36,0.9-0.64,1.45-0.84c0.55-0.2,1.14-0.31,1.77-0.31h15.62
			c1.21,0,2.5,0.19,3.89,0.58c1.39,0.39,2.7,1.01,3.96,1.86V599h11.8c0.83,0,1.7,0.09,2.61,0.26c0.92,0.17,1.83,0.44,2.73,0.81
			c0.9,0.37,1.77,0.84,2.6,1.42c0.83,0.58,1.55,1.28,2.18,2.11c0.63,0.83,1.13,1.78,1.51,2.85c0.38,1.08,0.57,2.3,0.57,3.66V632h-9
			v-21.83c0-1.04-0.29-1.82-0.86-2.36c-0.58-0.54-1.46-0.81-2.66-0.81h-7.92c0.29,0.97,0.44,2.03,0.44,3.17V632z"/>
		<path class="st4" d="M987.72,610c0,1.11-0.21,2.3-0.64,3.58c-0.42,1.28-1.11,2.47-2.06,3.56c-0.95,1.1-2.19,2.01-3.72,2.75
			c-1.53,0.74-3.39,1.11-5.58,1.11H960v-7h16.47c1.24,0,2.2-0.34,2.88-1.03c0.68-0.68,1.02-1.53,1.02-2.54
			c0-1.07-0.38-1.91-1.14-2.52c-0.76-0.61-1.68-0.91-2.76-0.91H960.8c-1.21,0-2.14,0.33-2.81,1c-0.66,0.66-0.99,1.49-0.99,2.47
			v11.15c0,1.07,0.37,1.89,1.11,2.49c0.74,0.59,1.66,0.89,2.75,0.89H976v7h-15.88c-1.22,0-2.53-0.18-3.94-0.54
			c-1.41-0.36-2.72-0.94-3.93-1.74c-1.21-0.8-2.22-1.84-3.03-3.13c-0.81-1.29-1.22-2.86-1.22-4.7V610c0-1.11,0.21-2.3,0.64-3.58
			c0.42-1.28,1.11-2.47,2.06-3.56c0.95-1.1,2.19-2.01,3.72-2.75c1.53-0.74,3.39-1.11,5.58-1.11h15.72c1.21,0,2.51,0.2,3.91,0.58
			c1.4,0.39,2.69,1.02,3.89,1.89c1.2,0.87,2.2,2.01,3,3.41C987.32,606.29,987.72,607.99,987.72,610z"/>
		<path class="st4" d="M1054.22,599c-1.4,2.81-2.91,5.57-4.53,8.28c-1.62,2.71-3.32,5.28-5.09,7.7c-1.77,2.42-3.58,4.66-5.43,6.71
			c-1.85,2.05-3.68,3.81-5.5,5.3c-1.82,1.48-3.59,2.64-5.31,3.48c-1.72,0.84-3.35,1.26-4.89,1.26c-0.63,0-1.22-0.1-1.76-0.3
			c-0.54-0.2-1.02-0.48-1.42-0.83c-0.41-0.35-0.72-0.77-0.95-1.26s-0.34-1.01-0.34-1.57v-14.68l-17.46,17.47
			c-0.45,0.4-0.94,0.7-1.47,0.89c-0.53,0.19-1.08,0.29-1.64,0.29c-0.61,0-1.18-0.1-1.71-0.3c-0.53-0.2-1-0.48-1.4-0.83
			c-0.41-0.35-0.73-0.77-0.96-1.26c-0.24-0.48-0.35-1.01-0.35-1.57V599h9v18.65l17.5-17.53c0.63-0.56,1.38-0.92,2.25-1.07
			c0.87-0.15,1.72-0.07,2.55,0.26c0.83,0.3,1.49,0.78,1.98,1.44c0.48,0.66,0.73,1.38,0.73,2.16v18.71c1.89-1.63,3.6-3.36,5.13-5.18
			c1.53-1.82,2.96-3.69,4.27-5.62c1.32-1.93,2.56-3.88,3.72-5.87c1.16-1.99,2.29-3.97,3.39-5.95H1054.22z"/>
		<path class="st4" d="M1097,620.86c0,1.36-0.19,2.59-0.57,3.68c-0.38,1.09-0.88,2.05-1.5,2.87c-0.62,0.83-1.35,1.53-2.17,2.11
			c-0.82,0.58-1.69,1.05-2.59,1.42c-0.9,0.37-1.81,0.64-2.74,0.81c-0.92,0.17-1.8,0.26-2.62,0.26h-15.66c-1.2,0-2.52-0.19-3.94-0.58
			c-1.42-0.39-2.74-1.02-3.96-1.91c-1.21-0.89-2.23-2.04-3.04-3.45c-0.81-1.41-1.22-3.15-1.22-5.2v-10.75
			c0-2.03,0.41-3.76,1.22-5.17c0.81-1.41,1.83-2.56,3.04-3.45c1.21-0.89,2.53-1.52,3.96-1.91c1.42-0.39,2.74-0.58,3.94-0.58h15.66
			c2.23,0,4.12,0.37,5.68,1.1s2.82,1.65,3.77,2.76c0.96,1.11,1.65,2.32,2.09,3.62c0.43,1.3,0.65,2.51,0.65,3.63V620.86z
			 M1088,610.21c0-1.09-0.3-1.9-0.92-2.42c-0.61-0.52-1.49-0.79-2.65-0.79h-15.84c-1.18,0-2.07,0.27-2.68,0.8
			c-0.61,0.54-0.92,1.32-0.92,2.35v10.67c0,1.03,0.3,1.82,0.92,2.36c0.61,0.55,1.5,0.82,2.68,0.82h15.84c1.2,0,2.09-0.27,2.68-0.82
			c0.59-0.55,0.88-1.33,0.88-2.36V610.21z"/>
		<path class="st4" d="M1136,607h-19.3c-1.22,0-2.15,0.27-2.77,0.81c-0.62,0.54-0.93,1.33-0.93,2.36V632h-9v-21.8
			c0-1.37,0.19-2.6,0.57-3.69c0.38-1.09,0.89-2.05,1.53-2.88c0.64-0.83,1.37-1.54,2.2-2.12c0.83-0.59,1.7-1.06,2.61-1.43
			c0.91-0.37,1.83-0.64,2.76-0.82c0.93-0.17,1.8-0.26,2.61-0.26H1136V607z"/>
		<path class="st4" d="M1151,632h-9v-47h9V632z M1184.85,632h-12.72l-17.78-15.42c-1-0.81-1.46-1.83-1.39-3.05
			c0.05-0.57,0.21-1.1,0.49-1.6c0.28-0.5,0.67-0.92,1.17-1.26l16.12-11.67h14.12l-20.77,15.02L1184.85,632z"/>
	</g>
</g>
</svg>
