<?xml version="1.0" encoding="utf-8"?>
<!-- Generator: Adobe Illustrator 23.0.3, SVG Export Plug-In . SVG Version: 6.00 Build 0)  -->
<svg version="1.1" id="Layer_1" xmlns="http://www.w3.org/2000/svg" xmlns:xlink="http://www.w3.org/1999/xlink" x="0px" y="0px"
	 viewBox="0 0 1200 1200" style="enable-background:new 0 0 1200 1200;" xml:space="preserve">
<style type="text/css">
	.st0{fill:none;}
	.st1{enable-background:new    ;}
	.st2{fill:#808080;}
	.st3{fill:#3FA9F5;}
	.st4{fill:#999999;}
</style>
<g>
	<polygon class="st0" points="409.91,584.88 407.64,584.88 407.64,584.88 	"/>
	<g class="st1">
		<path class="st2" d="M303.46,577.89c8.77,0,10.01-6.29,10.01-11.94c0-4.52-0.49-9.04-0.99-13.56s-0.99-8.88-0.99-13.4
			c0-14.85,7.41-21.14,17.91-21.14H332v8.88h-2.22c-7.29,0-9.76,5.16-9.76,13.88c0,3.71,0.37,7.59,0.86,11.46
			c0.49,4.03,0.86,7.91,0.86,12.27c0.12,10.33-3.34,15.49-8.9,17.43v0.32c5.56,1.77,9.02,7.26,8.9,17.59
			c0,4.36-0.37,8.39-0.86,12.27c-0.49,4.04-0.86,7.75-0.86,11.62c0,9.04,2.84,14.04,9.76,14.04H332v8.88h-2.59
			c-10.25,0-17.91-5.81-17.91-22.11c0-4.36,0.49-8.88,0.99-13.23c0.49-4.36,0.99-8.72,0.99-13.07c0-5-1.24-11.94-10.01-11.94V577.89
			z"/>
	</g>
	<g class="st1">
		<path class="st3" d="M414.73,628.41h-15.69v-47.28c0-2.68-0.35-5.08-1.06-7.21c-0.7-2.13-1.66-3.95-2.87-5.48
			c-1.21-1.52-2.62-2.69-4.25-3.51c-1.63-0.81-3.39-1.22-5.28-1.22h-27.45v64.7h-15.69v-75.03c0-1.42,0.2-2.74,0.6-3.98
			c0.4-1.23,0.97-2.31,1.69-3.23c0.72-0.92,1.57-1.64,2.53-2.17c0.97-0.52,1.99-0.79,3.08-0.79h35.35c1.97,0,4.05,0.29,6.24,0.87
			c2.19,0.58,4.36,1.51,6.52,2.8c2.15,1.29,4.2,2.92,6.15,4.89c1.95,1.97,3.68,4.36,5.19,7.17c1.51,2.81,2.7,6.06,3.59,9.73
			c0.88,3.68,1.33,7.83,1.33,12.45V628.41z"/>
		<path class="st3" d="M498.65,571.43c0,2.84-0.38,5.9-1.15,9.18c-0.76,3.28-2,6.33-3.71,9.14c-1.71,2.81-3.94,5.16-6.7,7.05
			c-2.76,1.89-6.1,2.84-10.04,2.84h-28.29v-19.47h28.29c2.13,0,3.78-0.85,4.95-2.56c1.17-1.71,1.75-3.82,1.75-6.34
			c0-2.68-0.65-4.78-1.96-6.3c-1.31-1.52-2.89-2.29-4.74-2.29h-28.29c-2.13,0-3.78,0.85-4.95,2.56c-1.17,1.71-1.75,3.82-1.75,6.34
			v28.61c0,2.73,0.65,4.86,1.96,6.38c1.31,1.52,2.93,2.29,4.86,2.29h28.17v19.54h-28.29c-2.17,0-4.52-0.5-7.03-1.5
			c-2.51-1-4.85-2.61-7-4.85c-2.15-2.23-3.95-5.15-5.4-8.75c-1.45-3.6-2.17-7.97-2.17-13.12v-28.76c0-2.84,0.38-5.9,1.15-9.18
			c0.76-3.28,2-6.33,3.71-9.14c1.71-2.81,3.94-5.16,6.7-7.05c2.75-1.89,6.1-2.84,10.04-2.84h28.29c2.17,0,4.51,0.5,7.03,1.5
			c2.51,1,4.85,2.61,7,4.85c2.15,2.23,3.95,5.15,5.4,8.75C497.93,561.9,498.65,566.28,498.65,571.43z"/>
		<path class="st3" d="M580.16,599.64c0,3.52-0.34,6.69-1.03,9.5c-0.68,2.81-1.59,5.28-2.71,7.41c-1.13,2.13-2.43,3.94-3.92,5.44
			c-1.49,1.5-3.05,2.72-4.68,3.67c-1.63,0.95-3.28,1.64-4.95,2.09c-1.67,0.45-3.25,0.67-4.74,0.67h-28.29c-2.17,0-4.55-0.5-7.12-1.5
			c-2.57-1-4.96-2.64-7.15-4.93c-2.19-2.29-4.02-5.25-5.49-8.91c-1.47-3.65-2.2-8.13-2.2-13.44V571.9c0-5.25,0.73-9.71,2.2-13.36
			c1.47-3.65,3.3-6.62,5.49-8.91c2.19-2.29,4.57-3.93,7.15-4.93c2.57-1,4.95-1.5,7.12-1.5h28.29c4.02,0,7.44,0.95,10.26,2.84
			c2.81,1.89,5.09,4.27,6.82,7.13c1.73,2.86,2.99,5.98,3.77,9.34c0.78,3.36,1.18,6.49,1.18,9.38V599.64z M564.47,572.06
			c0-2.84-0.54-4.94-1.63-6.3c-1.09-1.37-2.65-2.05-4.71-2.05h-28.17c-2.09,0-3.68,0.7-4.77,2.09c-1.09,1.39-1.63,3.43-1.63,6.11
			v27.74c0,2.68,0.54,4.73,1.63,6.15c1.09,1.42,2.67,2.13,4.77,2.13h28.17c2.13,0,3.72-0.71,4.77-2.13
			c1.05-1.42,1.57-3.47,1.57-6.15V572.06z"/>
	</g>
	<g class="st1">
		<path class="st4" d="M622.15,628.41h-7c-2.25,0-4.66-0.5-7.21-1.5c-2.55-1-4.94-2.64-7.15-4.93c-2.21-2.29-4.04-5.25-5.49-8.91
			c-1.45-3.65-2.17-8.13-2.17-13.44V507.2h15.69v92.44c0,2.52,0.6,4.53,1.81,6.03c1.21,1.5,2.71,2.25,4.52,2.25h7V628.41z"/>
		<path class="st4" d="M699.55,600.19c0,2.84-0.38,5.9-1.15,9.18c-0.76,3.28-2,6.33-3.71,9.14c-1.71,2.81-3.94,5.16-6.7,7.05
			s-6.1,2.84-10.04,2.84h-28.29c-2.17,0-4.52-0.5-7.03-1.5c-2.51-1-4.85-2.61-7-4.85c-2.15-2.23-3.95-5.15-5.4-8.75
			c-1.45-3.6-2.17-7.97-2.17-13.12c0-2.84,0.38-5.91,1.15-9.22c0.76-3.31,2-6.37,3.71-9.18c1.71-2.81,3.94-5.16,6.7-7.05
			c2.75-1.89,6.1-2.84,10.04-2.84h28.29v19.54h-28.29c-2.13,0-3.78,0.85-4.95,2.56c-1.17,1.71-1.75,3.82-1.75,6.34
			c0,2.68,0.67,4.77,2.02,6.27c1.35,1.5,2.95,2.25,4.8,2.25h28.17c2.13,0,3.78-0.84,4.95-2.52c1.17-1.68,1.75-3.78,1.75-6.3v-28.61
			c0-2.68-0.63-4.81-1.9-6.38c-1.27-1.58-2.87-2.36-4.8-2.36H643.5v-19.47h34.45c2.17,0,4.51,0.5,7.03,1.5c2.51,1,4.85,2.61,7,4.85
			c2.15,2.23,3.95,5.15,5.4,8.75c1.45,3.6,2.17,7.97,2.17,13.12V600.19z"/>
		<path class="st4" d="M784.86,599.64c0,1.94-0.17,3.99-0.51,6.15c-0.34,2.16-0.88,4.29-1.6,6.42c-0.72,2.13-1.66,4.17-2.81,6.11
			c-1.15,1.94-2.53,3.67-4.16,5.16c-1.63,1.5-3.51,2.69-5.64,3.59c-2.13,0.89-4.55,1.34-7.24,1.34H734.6
			c-1.49,0-3.06-0.22-4.71-0.67c-1.65-0.45-3.29-1.14-4.92-2.09c-1.63-0.95-3.19-2.17-4.67-3.67c-1.49-1.5-2.81-3.31-3.95-5.44
			c-1.15-2.13-2.06-4.6-2.75-7.41c-0.68-2.81-1.03-5.98-1.03-9.5V507.2h15.69v92.44c0,2.52,0.6,4.53,1.81,6.03
			c1.21,1.5,2.71,2.25,4.52,2.25h28.29c1.97,0,3.51-0.76,4.62-2.29c1.11-1.52,1.66-3.52,1.66-5.99V571.9c0-2.57-0.58-4.58-1.75-6.03
			c-1.17-1.44-2.67-2.17-4.52-2.17H734.6v-20.49h28.29c1.49,0,3.06,0.22,4.71,0.67c1.65,0.45,3.29,1.14,4.92,2.09
			c1.63,0.95,3.19,2.17,4.68,3.66c1.49,1.5,2.79,3.31,3.92,5.44c1.13,2.13,2.03,4.58,2.71,7.37c0.68,2.79,1.03,5.94,1.03,9.46
			V599.64z"/>
	</g>
	<g class="st1">
		<path class="st3" d="M861.29,599.64c0,3.52-0.34,6.69-1.03,9.5c-0.68,2.81-1.59,5.28-2.71,7.41s-2.43,3.94-3.92,5.44
			c-1.49,1.5-3.05,2.72-4.68,3.67c-1.63,0.95-3.28,1.64-4.95,2.09c-1.67,0.45-3.25,0.67-4.74,0.67H796.8v-20.49h42.35
			c2.13,0,3.74-0.71,4.83-2.13c1.09-1.42,1.63-3.47,1.63-6.15c-0.2-5.46-2.31-8.2-6.33-8.2h-24.31c-3.46,0-6.39-0.79-8.81-2.36
			s-4.37-3.55-5.88-5.91c-1.51-2.36-2.59-4.91-3.26-7.64c-0.66-2.73-1-5.28-1-7.64c0-4.57,0.62-8.42,1.87-11.55
			c1.25-3.13,2.82-5.66,4.71-7.6c1.89-1.94,3.94-3.35,6.15-4.22c2.21-0.87,4.28-1.3,6.21-1.3h38.55v20.49h-38.43
			c-0.81,0-1.44,0.12-1.9,0.35c-0.46,0.24-0.81,0.55-1.03,0.95c-0.22,0.39-0.35,0.82-0.39,1.26c-0.04,0.45-0.06,0.88-0.06,1.3
			c0.04,0.84,0.16,1.5,0.36,1.97c0.2,0.47,0.45,0.81,0.75,1.02c0.3,0.21,0.64,0.33,1.03,0.35c0.38,0.03,0.75,0.04,1.12,0.04h24.31
			c4.02,0,7.44,0.95,10.26,2.84c2.81,1.89,5.09,4.27,6.82,7.13c1.73,2.86,2.99,5.98,3.77,9.34
			C860.9,593.63,861.29,596.75,861.29,599.64z"/>
	</g>
	<g class="st1">
		<path class="st2" d="M896.54,586.12c-8.77,0-10.01,6.94-10.01,11.94c0,4.36,0.49,8.71,0.99,13.07c0.49,4.36,0.99,8.88,0.99,13.23
			c0,16.3-7.78,22.11-17.91,22.11H868v-8.88h2.1c6.92-0.16,9.88-5,9.88-14.04c0-3.87-0.49-7.58-0.87-11.62
			c-0.49-3.87-0.99-7.91-0.99-12.27c0-10.33,3.46-15.82,8.9-17.59v-0.32c-5.44-1.94-8.9-7.1-8.9-17.43c0-4.36,0.49-8.23,0.99-12.27
			c0.37-3.87,0.87-7.75,0.87-11.46c0-8.72-2.59-13.72-9.76-13.88H868v-8.88h2.47c10.5,0,18.04,6.29,18.04,21.14
			c0,4.52-0.49,8.88-0.99,13.4s-0.99,9.04-0.99,13.56c0,5.65,1.24,11.94,10.01,11.94V586.12z"/>
	</g>
	<g class="st1">
		<path class="st4" d="M444,655.58h-35.13v35.54h-8.77v-39.45c0-0.54,0.11-1.06,0.34-1.54c0.22-0.48,0.53-0.91,0.93-1.27
			c0.39-0.36,0.86-0.65,1.4-0.85c0.54-0.2,1.12-0.3,1.75-0.3H444V655.58z M440.09,673.38h-27.71v-7.93h27.71V673.38z"/>
		<path class="st4" d="M480.68,666.26h-19.72c-1.19,0-2.09,0.27-2.7,0.8c-0.61,0.54-0.91,1.32-0.91,2.35v21.71h-8.77v-21.71
			c0-1.35,0.19-2.56,0.57-3.63c0.38-1.07,0.89-2.01,1.53-2.83c0.64-0.82,1.38-1.51,2.21-2.09c0.83-0.58,1.7-1.04,2.61-1.41
			c0.91-0.36,1.83-0.63,2.76-0.8c0.93-0.17,1.8-0.26,2.61-0.26h19.79V666.26z"/>
		<path class="st4" d="M521.23,680.28c0,1.09-0.21,2.27-0.64,3.53c-0.43,1.26-1.12,2.43-2.07,3.51c-0.96,1.08-2.2,1.98-3.74,2.71
			c-1.54,0.73-3.41,1.09-5.61,1.09h-15.81c-1.21,0-2.52-0.19-3.93-0.58c-1.4-0.38-2.71-1-3.91-1.86c-1.2-0.86-2.21-1.98-3.02-3.36
			c-0.81-1.38-1.21-3.06-1.21-5.04c0-1.09,0.21-2.27,0.64-3.54c0.43-1.27,1.12-2.45,2.07-3.53c0.96-1.08,2.2-1.98,3.74-2.71
			c1.54-0.73,3.41-1.09,5.61-1.09h15.81v7.51h-15.81c-1.19,0-2.11,0.33-2.76,0.98c-0.65,0.66-0.98,1.47-0.98,2.44
			c0,1.03,0.38,1.83,1.13,2.41c0.75,0.58,1.65,0.86,2.68,0.86h15.74c1.19,0,2.11-0.32,2.76-0.97c0.65-0.65,0.98-1.45,0.98-2.42
			v-10.99c0-1.03-0.35-1.85-1.06-2.45s-1.6-0.91-2.68-0.91h-19.25v-7.48h19.25c1.21,0,2.52,0.19,3.93,0.58
			c1.4,0.38,2.71,1,3.91,1.86c1.2,0.86,2.21,1.98,3.02,3.36c0.81,1.38,1.21,3.06,1.21,5.04V680.28z"/>
		<path class="st4" d="M561.25,691.12h-8.77v-21.71c0-1.03-0.3-1.81-0.91-2.35c-0.61-0.53-1.51-0.8-2.7-0.8h-11.4v24.85h-8.77V662.3
			c0-0.54,0.11-1.05,0.34-1.53c0.22-0.47,0.54-0.89,0.94-1.24c0.4-0.35,0.88-0.63,1.42-0.83c0.54-0.2,1.11-0.3,1.72-0.3h15.81
			c1.21,0,2.52,0.19,3.91,0.58c1.39,0.38,2.72,1,3.98,1.85v-2.42h11.87c0.83,0,1.71,0.09,2.63,0.26c0.92,0.17,1.84,0.44,2.75,0.8
			s1.78,0.83,2.61,1.41c0.83,0.57,1.56,1.27,2.19,2.09c0.63,0.82,1.13,1.76,1.52,2.83c0.38,1.07,0.57,2.28,0.57,3.63v21.71h-8.77
			v-21.71c0-1.03-0.29-1.81-0.86-2.35c-0.57-0.53-1.46-0.8-2.65-0.8h-7.89c0.29,0.97,0.44,2.02,0.44,3.15V691.12z"/>
		<path class="st4" d="M628.23,669.23c0,1.09-0.21,2.27-0.64,3.53c-0.43,1.26-1.12,2.43-2.07,3.51c-0.96,1.08-2.2,1.98-3.74,2.71
			s-3.41,1.09-5.61,1.09h-15.81v-7.48h15.81c1.19,0,2.11-0.33,2.76-0.98c0.65-0.66,0.98-1.47,0.98-2.44c0-1.03-0.37-1.84-1.1-2.42
			c-0.73-0.58-1.61-0.88-2.65-0.88h-15.81c-1.19,0-2.11,0.33-2.76,0.98c-0.65,0.66-0.98,1.47-0.98,2.44v10.99
			c0,1.05,0.37,1.87,1.1,2.45c0.73,0.59,1.63,0.88,2.71,0.88h15.74v7.51h-15.81c-1.21,0-2.52-0.19-3.93-0.58
			c-1.4-0.38-2.71-1-3.91-1.86c-1.2-0.86-2.21-1.98-3.02-3.36c-0.81-1.38-1.21-3.06-1.21-5.04v-11.05c0-1.09,0.21-2.27,0.64-3.53
			c0.43-1.26,1.12-2.43,2.07-3.51c0.96-1.08,2.2-1.98,3.74-2.71c1.54-0.73,3.41-1.09,5.61-1.09h15.81c1.21,0,2.52,0.19,3.93,0.58
			c1.4,0.38,2.71,1,3.91,1.86c1.2,0.86,2.21,1.98,3.02,3.36C627.83,665.57,628.23,667.25,628.23,669.23z"/>
		<path class="st4" d="M694.14,658.39c-1.39,2.81-2.9,5.57-4.52,8.28c-1.62,2.71-3.31,5.28-5.07,7.7c-1.76,2.42-3.57,4.66-5.41,6.71
			c-1.84,2.05-3.67,3.81-5.48,5.3c-1.81,1.48-3.57,2.64-5.29,3.48c-1.72,0.84-3.34,1.26-4.87,1.26c-0.63,0-1.21-0.1-1.75-0.3
			c-0.54-0.2-1.01-0.48-1.42-0.83c-0.4-0.35-0.72-0.77-0.94-1.26s-0.34-1.01-0.34-1.57v-14.68l-17.4,17.47
			c-0.45,0.4-0.94,0.7-1.47,0.89c-0.53,0.19-1.07,0.29-1.63,0.29c-0.61,0-1.17-0.1-1.7-0.3c-0.53-0.2-1-0.48-1.4-0.83
			c-0.4-0.35-0.72-0.77-0.96-1.26s-0.35-1.01-0.35-1.57v-28.76h8.76v18.65l17.46-17.53c0.63-0.56,1.38-0.92,2.24-1.07
			c0.87-0.15,1.71-0.07,2.54,0.26c0.83,0.3,1.49,0.78,1.97,1.44c0.48,0.66,0.72,1.38,0.72,2.16v18.71c1.89-1.63,3.6-3.36,5.12-5.18
			s2.95-3.69,4.26-5.62c1.32-1.93,2.55-3.88,3.71-5.87c1.16-1.99,2.29-3.97,3.39-5.95H694.14z"/>
		<path class="st4" d="M736.82,680.07c0,1.35-0.19,2.57-0.57,3.65c-0.38,1.08-0.89,2.03-1.52,2.85c-0.63,0.82-1.36,1.51-2.19,2.09
			c-0.83,0.57-1.7,1.04-2.61,1.41s-1.83,0.63-2.76,0.8c-0.93,0.17-1.82,0.26-2.65,0.26h-15.81c-1.21,0-2.54-0.19-3.98-0.58
			c-1.44-0.38-2.77-1.01-3.99-1.89c-1.23-0.88-2.25-2.02-3.07-3.42c-0.82-1.4-1.23-3.12-1.23-5.16v-10.66
			c0-2.02,0.41-3.73,1.23-5.13c0.82-1.4,1.84-2.54,3.07-3.42c1.22-0.88,2.56-1.51,3.99-1.89c1.44-0.38,2.76-0.58,3.98-0.58h15.81
			c2.25,0,4.16,0.36,5.73,1.09s2.84,1.64,3.81,2.74c0.97,1.1,1.67,2.3,2.11,3.59c0.44,1.29,0.66,2.49,0.66,3.6V680.07z
			 M728.06,669.47c0-1.09-0.3-1.9-0.91-2.42c-0.61-0.52-1.48-0.79-2.63-0.79h-15.74c-1.17,0-2.06,0.27-2.66,0.8
			c-0.61,0.54-0.91,1.32-0.91,2.35v10.66c0,1.03,0.3,1.82,0.91,2.36c0.61,0.54,1.49,0.82,2.66,0.82h15.74
			c1.19,0,2.08-0.27,2.66-0.82c0.58-0.54,0.88-1.33,0.88-2.36V669.47z"/>
		<path class="st4" d="M776.17,666.26h-19.72c-1.19,0-2.09,0.27-2.7,0.8c-0.61,0.54-0.91,1.32-0.91,2.35v21.71h-8.77v-21.71
			c0-1.35,0.19-2.56,0.57-3.63c0.38-1.07,0.89-2.01,1.53-2.83c0.64-0.82,1.38-1.51,2.21-2.09c0.83-0.58,1.7-1.04,2.61-1.41
			s1.83-0.63,2.76-0.8c0.93-0.17,1.8-0.26,2.61-0.26h19.79V666.26z"/>
		<path class="st4" d="M790.83,691.12h-8.76v-46.56h8.76V691.12z M824.75,691.12H812.1l-17.67-15.32c-0.99-0.81-1.45-1.82-1.38-3.03
			c0.04-0.56,0.21-1.09,0.49-1.59c0.28-0.49,0.67-0.91,1.16-1.26l16.01-11.59h14.02l-20.63,14.92L824.75,691.12z"/>
	</g>
</g>
</svg>
