<?xml version="1.0" encoding="utf-8"?>
<!-- Generator: Adobe Illustrator 23.0.3, SVG Export Plug-In . SVG Version: 6.00 Build 0)  -->
<svg version="1.1" id="Layer_1" xmlns="http://www.w3.org/2000/svg" xmlns:xlink="http://www.w3.org/1999/xlink" x="0px" y="0px"
	 viewBox="0 0 1920 1080" style="enable-background:new 0 0 1920 1080;" xml:space="preserve">
<style type="text/css">
	.st0{fill:none;}
	.st1{enable-background:new    ;}
	.st2{fill:#808080;}
	.st3{fill:#3FA9F5;}
	.st4{fill:#999999;}
</style>
<polygon class="st0" points="761.39,326.09 759.01,326.09 759.01,326.09 "/>
<g class="st1">
	<path class="st2" d="M650.15,319.1c9.17,0,10.46-6.29,10.46-11.94c0-4.52-0.52-9.04-1.03-13.56s-1.03-8.88-1.03-13.4
		c0-14.85,7.75-21.14,18.72-21.14h2.71v8.88h-2.32c-7.62,0-10.2,5.16-10.2,13.88c0,3.71,0.39,7.59,0.9,11.46
		c0.52,4.03,0.9,7.91,0.9,12.27c0.13,10.33-3.49,15.49-9.3,17.43v0.32c5.81,1.77,9.42,7.26,9.3,17.59c0,4.36-0.39,8.39-0.9,12.27
		c-0.52,4.04-0.9,7.75-0.9,11.62c0,9.04,2.97,14.04,10.2,14.04h2.32v8.88h-2.71c-10.72,0-18.72-5.81-18.72-22.11
		c0-4.36,0.52-8.88,1.03-13.23c0.52-4.36,1.03-8.72,1.03-13.07c0-5-1.29-11.94-10.46-11.94V319.1z"/>
</g>
<g class="st1">
	<path class="st3" d="M766.41,369.61h-16.39v-47.28c0-2.68-0.37-5.08-1.1-7.21c-0.74-2.13-1.73-3.95-2.99-5.48
		c-1.26-1.52-2.74-2.69-4.44-3.51c-1.7-0.81-3.54-1.22-5.52-1.22h-28.68v64.7h-16.39v-75.03c0-1.42,0.21-2.74,0.63-3.98
		c0.42-1.23,1.01-2.31,1.76-3.23c0.76-0.92,1.64-1.64,2.65-2.17c1.01-0.52,2.08-0.79,3.21-0.79h36.94c2.06,0,4.23,0.29,6.52,0.87
		c2.29,0.58,4.56,1.51,6.81,2.8c2.25,1.29,4.39,2.92,6.43,4.89c2.04,1.97,3.85,4.36,5.42,7.17c1.58,2.81,2.83,6.06,3.75,9.73
		c0.92,3.68,1.39,7.83,1.39,12.45V369.61z"/>
	<path class="st3" d="M854.1,312.64c0,2.84-0.4,5.9-1.2,9.18c-0.8,3.28-2.09,6.33-3.88,9.14c-1.79,2.81-4.12,5.16-7,7.05
		c-2.88,1.89-6.38,2.84-10.5,2.84h-29.57v-19.47h29.57c2.23,0,3.95-0.85,5.17-2.56c1.22-1.71,1.83-3.82,1.83-6.34
		c0-2.68-0.68-4.78-2.05-6.3c-1.37-1.52-3.02-2.29-4.95-2.29h-29.57c-2.23,0-3.95,0.85-5.17,2.56c-1.22,1.71-1.83,3.82-1.83,6.34
		v28.61c0,2.73,0.68,4.86,2.05,6.38c1.36,1.52,3.06,2.29,5.07,2.29h29.44v19.54h-29.57c-2.27,0-4.72-0.5-7.34-1.5
		c-2.63-1-5.06-2.61-7.31-4.85c-2.25-2.23-4.13-5.15-5.64-8.75c-1.51-3.6-2.27-7.97-2.27-13.12v-28.76c0-2.84,0.4-5.9,1.2-9.18
		c0.8-3.28,2.09-6.33,3.88-9.14c1.79-2.81,4.12-5.16,7-7.05c2.88-1.89,6.38-2.84,10.5-2.84h29.57c2.27,0,4.72,0.5,7.34,1.5
		c2.63,1,5.06,2.61,7.31,4.85c2.25,2.23,4.13,5.15,5.64,8.75C853.34,303.11,854.1,307.49,854.1,312.64z"/>
	<path class="st3" d="M939.26,340.85c0,3.52-0.36,6.69-1.07,9.5c-0.72,2.81-1.66,5.28-2.84,7.41c-1.18,2.13-2.54,3.94-4.1,5.44
		c-1.56,1.5-3.18,2.72-4.89,3.67c-1.7,0.95-3.43,1.64-5.17,2.09c-1.74,0.45-3.39,0.67-4.95,0.67h-29.56c-2.27,0-4.75-0.5-7.44-1.5
		c-2.69-1-5.18-2.64-7.47-4.93c-2.29-2.29-4.2-5.25-5.74-8.91c-1.53-3.65-2.3-8.13-2.3-13.44v-27.74c0-5.25,0.77-9.71,2.3-13.36
		c1.53-3.65,3.45-6.62,5.74-8.91c2.29-2.29,4.78-3.93,7.47-4.93c2.69-1,5.17-1.5,7.44-1.5h29.56c4.2,0,7.77,0.95,10.72,2.84
		c2.94,1.89,5.32,4.27,7.12,7.13c1.81,2.86,3.12,5.98,3.94,9.34c0.82,3.36,1.23,6.49,1.23,9.38V340.85z M922.87,313.27
		c0-2.84-0.57-4.94-1.7-6.3c-1.13-1.37-2.77-2.05-4.92-2.05h-29.44c-2.19,0-3.85,0.7-4.98,2.09c-1.13,1.39-1.7,3.43-1.7,6.11v27.74
		c0,2.68,0.57,4.73,1.7,6.15c1.13,1.42,2.79,2.13,4.98,2.13h29.44c2.23,0,3.89-0.71,4.98-2.13c1.09-1.42,1.64-3.47,1.64-6.15V313.27
		z"/>
</g>
<g class="st1">
	<path class="st4" d="M983.14,369.61h-7.31c-2.35,0-4.87-0.5-7.53-1.5c-2.67-1-5.16-2.64-7.47-4.93c-2.31-2.29-4.22-5.25-5.74-8.91
		c-1.51-3.65-2.27-8.13-2.27-13.44v-92.44h16.39v92.44c0,2.52,0.63,4.53,1.89,6.03c1.26,1.5,2.84,2.25,4.73,2.25h7.31V369.61z"/>
	<path class="st4" d="M1064.02,341.4c0,2.84-0.4,5.9-1.2,9.18c-0.8,3.28-2.09,6.33-3.88,9.14c-1.79,2.81-4.12,5.16-7,7.05
		c-2.88,1.89-6.38,2.84-10.5,2.84h-29.56c-2.27,0-4.72-0.5-7.34-1.5c-2.63-1-5.06-2.61-7.31-4.85c-2.25-2.23-4.13-5.15-5.64-8.75
		c-1.51-3.6-2.27-7.97-2.27-13.12c0-2.84,0.4-5.91,1.2-9.22c0.8-3.31,2.09-6.37,3.88-9.18c1.79-2.81,4.12-5.16,7-7.05
		c2.88-1.89,6.38-2.84,10.5-2.84h29.56v19.54h-29.56c-2.23,0-3.95,0.85-5.17,2.56c-1.22,1.71-1.83,3.82-1.83,6.34
		c0,2.68,0.7,4.77,2.11,6.27c1.41,1.5,3.08,2.25,5.01,2.25h29.44c2.23,0,3.95-0.84,5.17-2.52c1.22-1.68,1.83-3.78,1.83-6.3v-28.61
		c0-2.68-0.66-4.81-1.99-6.38c-1.32-1.58-2.99-2.36-5.01-2.36h-36v-19.47h36c2.27,0,4.72,0.5,7.34,1.5c2.63,1,5.06,2.61,7.31,4.85
		c2.25,2.23,4.13,5.15,5.64,8.75c1.51,3.6,2.27,7.97,2.27,13.12V341.4z"/>
	<path class="st4" d="M1153.15,340.85c0,1.94-0.18,3.99-0.54,6.15c-0.36,2.16-0.91,4.3-1.67,6.42c-0.76,2.13-1.73,4.16-2.93,6.11
		c-1.2,1.94-2.65,3.67-4.35,5.16c-1.7,1.5-3.67,2.69-5.89,3.59c-2.23,0.89-4.75,1.34-7.56,1.34h-29.57c-1.55,0-3.19-0.22-4.92-0.67
		c-1.72-0.45-3.44-1.14-5.14-2.09c-1.7-0.95-3.33-2.17-4.88-3.67c-1.56-1.5-2.93-3.31-4.13-5.44c-1.2-2.13-2.15-4.6-2.87-7.41
		c-0.71-2.81-1.07-5.98-1.07-9.5v-92.44h16.39v92.44c0,2.52,0.63,4.53,1.89,6.03c1.26,1.5,2.84,2.25,4.73,2.25h29.57
		c2.06,0,3.67-0.76,4.82-2.29c1.16-1.52,1.73-3.52,1.73-5.99v-27.74c0-2.57-0.61-4.58-1.83-6.03c-1.22-1.44-2.79-2.17-4.73-2.17
		h-29.57v-20.49h29.57c1.55,0,3.19,0.22,4.92,0.67c1.72,0.45,3.44,1.14,5.14,2.09c1.7,0.95,3.33,2.17,4.89,3.66
		c1.55,1.5,2.92,3.31,4.1,5.44c1.18,2.13,2.12,4.58,2.84,7.37c0.71,2.79,1.07,5.94,1.07,9.46V340.85z"/>
</g>
<g class="st1">
	<path class="st3" d="M1233.02,340.85c0,3.52-0.36,6.69-1.07,9.5c-0.71,2.81-1.66,5.28-2.84,7.41s-2.54,3.94-4.1,5.44
		c-1.56,1.5-3.18,2.72-4.89,3.67c-1.7,0.95-3.43,1.64-5.17,2.09c-1.75,0.45-3.39,0.67-4.95,0.67h-44.38v-20.49h44.25
		c2.23,0,3.91-0.71,5.04-2.13c1.13-1.42,1.7-3.47,1.7-6.15c-0.21-5.46-2.42-8.2-6.62-8.2h-25.4c-3.62,0-6.68-0.79-9.2-2.36
		c-2.52-1.58-4.57-3.55-6.15-5.91s-2.71-4.91-3.4-7.64c-0.69-2.73-1.04-5.28-1.04-7.64c0-4.57,0.65-8.42,1.95-11.55
		c1.3-3.13,2.94-5.66,4.92-7.6c1.97-1.94,4.12-3.35,6.43-4.22c2.31-0.87,4.48-1.3,6.49-1.3h40.28v20.49h-40.16
		c-0.84,0-1.5,0.12-1.99,0.35c-0.48,0.24-0.84,0.55-1.07,0.95c-0.23,0.39-0.37,0.82-0.41,1.26c-0.04,0.45-0.06,0.88-0.06,1.3
		c0.04,0.84,0.17,1.5,0.38,1.97c0.21,0.47,0.47,0.81,0.79,1.02c0.32,0.21,0.67,0.33,1.07,0.35c0.4,0.03,0.79,0.04,1.17,0.04h25.4
		c4.2,0,7.77,0.95,10.72,2.84c2.94,1.89,5.32,4.27,7.12,7.13c1.81,2.86,3.12,5.98,3.94,9.34
		C1232.61,334.83,1233.02,337.96,1233.02,340.85z"/>
</g>
<g class="st1">
	<path class="st2" d="M1269.85,327.33c-9.17,0-10.46,6.94-10.46,11.94c0,4.36,0.52,8.72,1.03,13.07c0.52,4.36,1.03,8.88,1.03,13.23
		c0,16.3-8.13,22.11-18.72,22.11h-2.71v-8.88h2.2c7.23-0.16,10.33-5,10.33-14.04c0-3.87-0.52-7.58-0.9-11.62
		c-0.52-3.87-1.03-7.91-1.03-12.27c0-10.33,3.61-15.82,9.29-17.59v-0.32c-5.68-1.94-9.29-7.1-9.29-17.43
		c0-4.36,0.52-8.23,1.03-12.27c0.39-3.87,0.9-7.75,0.9-11.46c0-8.72-2.71-13.72-10.2-13.88h-2.32v-8.88h2.58
		c10.97,0,18.85,6.29,18.85,21.14c0,4.52-0.52,8.88-1.03,13.4s-1.03,9.04-1.03,13.56c0,5.65,1.29,11.94,10.46,11.94V327.33z"/>
</g>
<g class="st1">
	<path class="st4" d="M789,396.79H752.3v35.54h-9.16v-39.45c0-0.54,0.12-1.06,0.35-1.54c0.23-0.48,0.56-0.91,0.97-1.27
		c0.41-0.36,0.9-0.65,1.46-0.85c0.56-0.2,1.17-0.3,1.83-0.3H789V396.79z M784.92,414.59h-28.96v-7.93h28.96V414.59z"/>
	<path class="st4" d="M827.33,407.47h-20.61c-1.25,0-2.18,0.27-2.82,0.8c-0.63,0.54-0.95,1.32-0.95,2.35v21.71h-9.16v-21.71
		c0-1.35,0.2-2.56,0.6-3.63c0.4-1.07,0.93-2.01,1.6-2.83c0.67-0.82,1.44-1.51,2.31-2.09c0.87-0.58,1.78-1.04,2.73-1.41
		s1.91-0.63,2.89-0.8c0.97-0.17,1.88-0.26,2.73-0.26h20.68V407.47z"/>
	<path class="st4" d="M869.71,421.49c0,1.09-0.22,2.27-0.67,3.53c-0.45,1.26-1.17,2.43-2.17,3.51c-1,1.08-2.3,1.98-3.91,2.71
		c-1.61,0.73-3.56,1.09-5.87,1.09h-16.52c-1.27,0-2.64-0.19-4.1-0.58c-1.47-0.38-2.83-1-4.09-1.86c-1.26-0.86-2.31-1.98-3.15-3.36
		c-0.85-1.38-1.27-3.06-1.27-5.04c0-1.09,0.22-2.27,0.67-3.54c0.45-1.27,1.17-2.45,2.17-3.53c1-1.08,2.3-1.98,3.91-2.71
		c1.61-0.73,3.56-1.09,5.87-1.09h16.52v7.51h-16.52c-1.25,0-2.21,0.33-2.89,0.98c-0.68,0.66-1.02,1.47-1.02,2.44
		c0,1.03,0.39,1.83,1.18,2.41c0.79,0.58,1.72,0.86,2.8,0.86h16.45c1.24,0,2.21-0.32,2.89-0.97c0.68-0.65,1.02-1.45,1.02-2.42v-10.99
		c0-1.03-0.37-1.85-1.11-2.45s-1.67-0.91-2.8-0.91h-20.11v-7.48h20.11c1.27,0,2.64,0.19,4.1,0.58c1.47,0.38,2.83,1,4.09,1.86
		c1.26,0.86,2.31,1.98,3.15,3.36c0.85,1.38,1.27,3.06,1.27,5.04V421.49z"/>
	<path class="st4" d="M911.52,432.33h-9.16v-21.71c0-1.03-0.32-1.81-0.95-2.35c-0.63-0.53-1.57-0.8-2.82-0.8h-11.91v24.85h-9.16
		v-28.82c0-0.54,0.12-1.05,0.35-1.53c0.23-0.47,0.56-0.89,0.99-1.24c0.42-0.35,0.92-0.63,1.48-0.83c0.56-0.2,1.16-0.3,1.8-0.3h16.52
		c1.27,0,2.63,0.19,4.09,0.58c1.46,0.38,2.84,1,4.16,1.85v-2.42h12.4c0.87,0,1.78,0.09,2.75,0.26c0.96,0.17,1.92,0.44,2.87,0.8
		s1.86,0.83,2.73,1.41c0.87,0.57,1.63,1.27,2.29,2.09c0.66,0.82,1.19,1.76,1.58,2.83c0.4,1.07,0.6,2.28,0.6,3.63v21.71h-9.16v-21.71
		c0-1.03-0.3-1.81-0.9-2.35c-0.6-0.53-1.52-0.8-2.77-0.8h-8.24c0.3,0.97,0.46,2.02,0.46,3.15V432.33z"/>
	<path class="st4" d="M981.51,410.44c0,1.09-0.22,2.27-0.67,3.53c-0.45,1.26-1.17,2.43-2.17,3.51c-1,1.08-2.3,1.98-3.91,2.71
		s-3.56,1.09-5.87,1.09h-16.52v-7.48h16.52c1.24,0,2.21-0.33,2.89-0.98c0.68-0.66,1.02-1.47,1.02-2.44c0-1.03-0.38-1.84-1.15-2.42
		c-0.76-0.58-1.69-0.88-2.76-0.88h-16.52c-1.25,0-2.21,0.33-2.89,0.98c-0.68,0.66-1.02,1.47-1.02,2.44v10.99
		c0,1.05,0.38,1.87,1.14,2.45c0.76,0.59,1.71,0.88,2.84,0.88h16.45v7.51h-16.52c-1.27,0-2.64-0.19-4.1-0.58
		c-1.47-0.38-2.83-1-4.09-1.86c-1.26-0.86-2.31-1.98-3.15-3.36c-0.85-1.38-1.27-3.06-1.27-5.04v-11.05c0-1.09,0.22-2.27,0.67-3.53
		c0.45-1.26,1.17-2.43,2.17-3.51c1-1.08,2.3-1.98,3.91-2.71c1.61-0.73,3.56-1.09,5.87-1.09h16.52c1.27,0,2.64,0.19,4.1,0.58
		c1.47,0.38,2.83,1,4.09,1.86c1.26,0.86,2.31,1.98,3.15,3.36C981.09,406.78,981.51,408.46,981.51,410.44z"/>
	<path class="st4" d="M1050.38,399.6c-1.46,2.81-3.03,5.57-4.72,8.28c-1.69,2.71-3.46,5.28-5.3,7.7c-1.84,2.42-3.73,4.66-5.65,6.71
		c-1.93,2.05-3.83,3.81-5.72,5.3c-1.89,1.48-3.73,2.64-5.53,3.48c-1.8,0.84-3.49,1.26-5.09,1.26c-0.66,0-1.27-0.1-1.83-0.3
		c-0.56-0.2-1.06-0.48-1.48-0.83c-0.42-0.35-0.75-0.77-0.99-1.26s-0.35-1.01-0.35-1.57v-14.68l-18.18,17.47
		c-0.47,0.4-0.98,0.7-1.53,0.89c-0.55,0.19-1.12,0.29-1.71,0.29c-0.63,0-1.23-0.1-1.78-0.3c-0.55-0.2-1.04-0.48-1.46-0.83
		c-0.42-0.35-0.76-0.77-1-1.26c-0.25-0.48-0.37-1.01-0.37-1.57V399.6h9.16v18.65l18.25-17.53c0.66-0.56,1.44-0.92,2.34-1.07
		c0.9-0.15,1.79-0.07,2.66,0.26c0.87,0.3,1.55,0.78,2.06,1.44c0.5,0.66,0.76,1.38,0.76,2.16v18.71c1.97-1.63,3.76-3.36,5.35-5.18
		s3.08-3.69,4.46-5.62c1.37-1.93,2.67-3.88,3.88-5.87c1.21-1.99,2.39-3.97,3.54-5.95H1050.38z"/>
	<path class="st4" d="M1094.98,421.28c0,1.35-0.2,2.57-0.6,3.65c-0.4,1.08-0.93,2.03-1.59,2.85c-0.66,0.82-1.42,1.51-2.29,2.09
		c-0.87,0.57-1.78,1.04-2.73,1.41s-1.91,0.63-2.89,0.8c-0.97,0.17-1.9,0.26-2.76,0.26h-16.52c-1.27,0-2.65-0.19-4.16-0.58
		c-1.5-0.38-2.89-1.01-4.17-1.89c-1.28-0.88-2.35-2.02-3.21-3.42c-0.86-1.4-1.29-3.12-1.29-5.16v-10.66c0-2.02,0.43-3.73,1.29-5.13
		c0.86-1.4,1.92-2.54,3.21-3.42c1.28-0.88,2.67-1.51,4.17-1.89c1.5-0.38,2.89-0.58,4.16-0.58h16.52c2.35,0,4.34,0.36,5.99,1.09
		c1.64,0.73,2.97,1.64,3.98,2.74c1.01,1.1,1.74,2.3,2.2,3.59c0.46,1.29,0.69,2.49,0.69,3.6V421.28z M1085.82,410.68
		c0-1.09-0.32-1.9-0.95-2.42c-0.63-0.52-1.55-0.79-2.75-0.79h-16.45c-1.22,0-2.15,0.27-2.78,0.8c-0.63,0.54-0.95,1.32-0.95,2.35
		v10.66c0,1.03,0.32,1.82,0.95,2.36c0.63,0.54,1.56,0.82,2.78,0.82h16.45c1.24,0,2.17-0.27,2.78-0.82c0.61-0.54,0.92-1.33,0.92-2.36
		V410.68z"/>
	<path class="st4" d="M1136.09,407.47h-20.61c-1.25,0-2.18,0.27-2.82,0.8c-0.63,0.54-0.95,1.32-0.95,2.35v21.71h-9.16v-21.71
		c0-1.35,0.2-2.56,0.6-3.63c0.4-1.07,0.93-2.01,1.6-2.83c0.67-0.82,1.44-1.51,2.31-2.09c0.87-0.58,1.78-1.04,2.73-1.41
		s1.91-0.63,2.89-0.8c0.97-0.17,1.88-0.26,2.73-0.26h20.68V407.47z"/>
	<path class="st4" d="M1151.41,432.33h-9.16v-46.56h9.16V432.33z M1186.85,432.33h-13.21l-18.46-15.32
		c-1.03-0.81-1.51-1.82-1.44-3.03c0.05-0.56,0.22-1.09,0.51-1.59c0.29-0.49,0.7-0.91,1.22-1.26l16.73-11.59h14.65l-21.56,14.92
		L1186.85,432.33z"/>
</g>
</svg>
